External Loads File
version=1
nRows=38
nColumns=13
Range=5.000000e-03-10 seconds
endheader
time 	forceRightX 	forceRightY 	forceRightZ 	pointRightX 	pointRightY 	pointRightZ 	forceLeftX 	forceLeftY 	forceLeftZ 	pointLeftX 	pointLeftY 	pointLeftZ 		
2.505000 43.282000 1344.188875 -0.000000 0.402654 0.201868 -0.106605 -74.096522 -116.093664 -0.000000 0.185366 0.390255 -0.353876
2.510000 73.485896 1373.938705 -0.000000 0.396657 0.194127 -0.106583 -88.513081 -113.548703 -0.000000 0.191759 0.397690 -0.353640
2.515000 105.445761 1398.187937 -0.000000 0.390266 0.186757 -0.106491 -99.468429 -108.233718 -0.000000 0.198463 0.404961 -0.353484
2.520000 137.561502 1415.939658 -0.000000 0.383586 0.179859 -0.106425 -106.646727 -100.699906 -0.000000 0.205415 0.411996 -0.353384
2.525000 169.294911 1426.146801 -0.000000 0.376512 0.173453 -0.106390 -110.215694 -91.515779 -0.000000 0.212531 0.418741 -0.353273
2.530000 199.766301 1427.784278 -0.000000 0.369163 0.167613 -0.106309 -110.632875 -81.262397 -0.000000 0.219888 0.425099 -0.353234
2.535000 229.305338 1419.647981 -0.000000 0.361583 0.162022 -0.106272 -108.619598 -70.320863 -0.000000 0.227474 0.431102 -0.353310
2.540000 255.473500 1400.999282 -0.000000 0.353904 0.157031 -0.106270 -104.840202 -59.130378 -0.000000 0.235187 0.436600 -0.353480
2.545000 279.143563 1370.705720 -0.000000 0.346084 0.152489 -0.106265 -100.138594 -47.738067 -0.000000 0.243174 0.441582 -0.353685
2.550000 299.929517 1328.029334 -0.000000 0.338085 0.148559 -0.106169 -95.211290 -36.192751 -0.000000 0.251349 0.446345 -0.354207
2.555000 317.190128 1272.656381 -0.000000 0.330023 0.144854 -0.106072 -90.580420 -24.489668 -0.000000 0.259790 0.450585 -0.354384
2.560000 328.745675 1205.234777 -0.000000 0.321925 0.141882 -0.105965 -86.534827 -12.694836 -0.000000 0.268160 0.454508 -0.354313
2.565000 334.860154 1126.503104 -0.000000 0.313862 0.139369 -0.105906 -83.224207 -0.755088 -0.000000 0.276635 0.457916 -0.354383
2.570000 335.138660 1038.061691 -0.000000 0.305853 0.137575 -0.105940 -80.650814 11.188517 -0.000000 0.285151 0.460720 -0.354534
2.575000 329.735305 942.043656 -0.000000 0.297865 0.136080 -0.105957 -78.766338 22.884946 -0.000000 0.293551 0.463251 -0.354838
2.580000 320.090345 840.709126 -0.000000 0.289862 0.135433 -0.105978 -77.486791 34.154446 -0.000000 0.302094 0.465146 -0.354952
2.585000 307.188937 736.788018 -0.000000 0.281604 0.135215 -0.105753 -76.726461 44.913917 -0.000000 0.310597 0.466716 -0.355149
2.590000 291.589348 633.203878 -0.000000 0.273441 0.135881 -0.105756 -76.420675 55.244576 -0.000000 0.319129 0.467751 -0.355435
2.595000 274.357131 532.291746 -0.000000 0.265209 0.136534 -0.105827 -76.443173 65.485595 -0.000000 0.327549 0.468288 -0.355367
2.600000 256.500035 435.650778 -0.000000 0.256836 0.137643 -0.105707 -76.577238 76.147212 -0.000000 0.335922 0.469173 -0.355304
2.605000 239.098945 343.854654 -0.000000 0.248298 0.139545 -0.105454 -76.416490 87.887113 -0.000000 0.344311 0.469026 -0.354975
2.610000 221.448258 257.774809 -0.000000 0.239964 0.141901 -0.105406 -75.792184 101.054157 -0.000000 0.352276 0.467662 -0.354713
2.615000 203.623948 177.274382 -0.000000 0.231698 0.144912 -0.105310 -74.325772 116.149197 -0.000000 0.360089 0.465806 -0.354535
2.620000 184.882130 102.729150 -0.000000 0.223728 0.148396 -0.105249 -71.986849 133.471931 -0.000000 0.367692 0.464129 -0.354544
2.625000 164.974980 34.165264 -0.000000 0.216065 0.152338 -0.105181 -68.601833 153.537313 -0.000000 0.374721 0.461293 -0.354616
2.630000 143.636927 -27.961813 -0.000000 0.208940 0.156723 -0.105131 -64.232133 176.817552 -0.000000 0.381277 0.457572 -0.354706
2.635000 121.057389 -82.910914 -0.000000 0.202360 0.161449 -0.105092 -59.280213 203.706758 -0.000000 0.387296 0.453734 -0.354970
2.640000 97.646255 -130.265215 -0.000000 0.196189 0.166405 -0.105066 -53.736919 234.658313 -0.000000 0.392788 0.448769 -0.355346
2.645000 74.323686 -169.324067 -0.000000 0.190406 0.171697 -0.104990 -48.306189 269.741113 -0.000000 0.398032 0.443894 -0.355673
2.650000 52.081381 -199.846402 -0.000000 0.184961 0.177126 -0.104927 -43.457893 308.909137 -0.000000 0.402880 0.438372 -0.356021
2.655000 31.883857 -221.913410 -0.000000 0.179715 0.183008 -0.104820 -39.578575 351.907832 -0.000000 0.407180 0.432193 -0.356546
2.660000 14.478932 -235.926421 -0.000000 0.174691 0.189436 -0.104637 -36.733110 398.290771 -0.000000 0.411171 0.425294 -0.357343
2.665000 0.683199 -242.519366 -0.000000 0.169873 0.196172 -0.104526 -35.192669 447.408081 -0.000000 0.414864 0.417710 -0.358080
2.670000 -9.054890 -242.540542 -0.000000 0.165249 0.203602 -0.104470 -34.862289 498.536679 -0.000000 0.418236 0.409862 -0.358281
2.675000 -14.619837 -236.952964 -0.000000 0.160815 0.211510 -0.104514 -35.421019 550.939394 -0.000000 0.421300 0.401575 -0.358191
2.680000 -16.321100 -226.798637 -0.000000 0.156721 0.219875 -0.104538 -36.038916 603.897157 -0.000000 0.424073 0.392553 -0.358682
2.685000 -14.308717 -213.263988 -0.000000 0.153086 0.228632 -0.104719 -36.718547 656.464218 -0.000000 0.426609 0.383208 -0.359115
2.690000 -9.098966 -197.624489 -0.000000 0.149807 0.237635 -0.104928 -37.243015 707.450686 -0.000000 0.428752 0.373620 -0.359172
